<svg width="24" height="16" viewBox="0 0 24 16" fill="none" xmlns="http://www.w3.org/2000/svg">
<path fill-rule="evenodd" clip-rule="evenodd" d="M1.62619 1.392L1.75975 1.24174C2.24925 0.729861 2.9785 0.473755 3.94683 0.473755H20.542C21.4545 0.473755 22.1557 0.69647 22.6456 1.14157L22.6623 1.15826C22.7624 1.24742 22.8629 1.35293 22.9628 1.47547C22.9628 1.48683 22.9684 1.49784 22.9795 1.50886L22.9962 1.52556C23.3638 1.98201 23.5471 2.62745 23.5471 3.46221V12.9117C23.5361 14.9152 22.5344 15.9169 20.542 15.9169H3.94683C1.95442 15.9059 0.958374 14.9042 0.958374 12.9117V3.46221C0.958374 2.56067 1.18109 1.87048 1.62619 1.392ZM21.0929 2.10989C20.9259 2.06548 20.7423 2.04845 20.5423 2.05981H3.94683C3.82429 2.04879 3.70742 2.05413 3.59623 2.0765L12.1943 10.7914L21.0929 2.10989ZM2.54443 3.27856C2.53341 3.33433 2.53341 3.39543 2.54443 3.46221V12.9117C2.54443 13.858 3.01189 14.3308 3.94683 14.3308H20.542C21.4879 14.3308 21.9611 13.858 21.9611 12.9117V3.47891L12.7452 12.4777C12.5783 12.6336 12.3893 12.7114 12.1779 12.7114C11.9552 12.7004 11.7659 12.6223 11.6103 12.4777L2.54443 3.27856Z" fill="url(#paint0_linear_1_138)"/>
<defs>
<linearGradient id="paint0_linear_1_138" x1="12.2527" y1="0.473755" x2="12.2527" y2="15.9169" gradientUnits="userSpaceOnUse">
<stop stop-color="#B356C1"/>
<stop offset="1" stop-color="#9734A6"/>
</linearGradient>
</defs>
</svg>
