<svg width="217" height="201" viewBox="0 0 217 201" fill="none" xmlns="http://www.w3.org/2000/svg">
<g filter="url(#filter0_d_1_147)">
<path d="M212.32 67.6327C212.32 30.2492 181.786 0 144.688 0C131.275 0 118.719 3.99518 108.16 10.8441C97.6014 3.99518 85.0452 0 71.6328 0C34.2492 0 4 30.2492 4 67.6327C4 86.4672 11.705 103.304 23.9759 115.575L92.4648 184.349L92.7502 184.635C97.0307 189.2 103.023 192.34 109.872 192.34C116.721 192.34 122.714 189.486 126.995 184.635L127.28 184.349L192.344 115.29C204.615 103.304 212.32 86.1818 212.32 67.6327ZM124.712 67.6327C124.712 69.9157 124.426 72.1987 124.141 74.4816C123.285 82.1866 120.431 89.3209 116.436 95.8844C116.151 96.7405 115.58 97.5966 115.009 98.1674C113.297 99.8796 111.014 101.306 108.16 101.306C105.306 101.306 102.738 99.8796 101.026 97.882C100.741 97.3112 100.17 97.0259 100.17 96.4551C95.8892 89.8916 93.0355 82.7574 92.1794 74.767C91.894 72.484 91.6087 70.2011 91.6087 67.6327C91.6087 52.5081 97.8868 38.8103 108.16 29.3931C118.433 38.8103 124.712 52.5081 124.712 67.6327ZM154.105 134.409L130.704 159.237L116.436 174.361L116.151 174.647C114.438 176.359 112.155 177.786 109.587 177.786C107.019 177.786 104.45 176.644 103.023 174.647L88.4696 159.807L63.6424 134.695L34.5346 105.587C24.832 95.8844 18.5539 82.472 18.5539 67.6327C18.5539 38.525 42.2396 14.5539 71.6328 14.5539C80.4792 14.5539 88.755 16.8368 96.1746 20.5467C84.4744 32.8176 77.0548 49.369 77.0548 67.6327C77.0548 81.0451 81.05 93.8868 87.8989 104.445C88.4696 105.302 88.755 105.872 89.3257 106.443C91.6087 109.582 94.4624 111.865 98.1722 113.577C101.311 115.004 104.736 115.86 108.16 115.86C111.87 115.86 115.009 115.004 118.148 113.577C121.287 112.15 124.141 109.868 126.424 107.299C127.28 105.872 128.421 104.445 129.278 103.304C129.278 103.304 129.278 103.304 129.278 103.019C135.556 92.7453 139.266 80.7598 139.266 67.9181C139.266 49.6544 132.131 33.1029 120.146 20.832C127.565 16.8368 135.841 14.8392 144.688 14.8392C173.795 14.8392 197.766 38.525 197.766 67.9181C197.766 82.7573 191.488 96.4551 181.5 105.872L154.105 134.409Z" fill="#B356C1"/>
<path d="M107.888 11.2635L108.16 11.44L108.432 11.2635C118.913 4.46497 131.376 0.5 144.688 0.5C181.511 0.5 211.82 30.5268 211.82 67.6327C211.82 86.0434 204.172 103.038 191.995 114.932L191.988 114.939L191.98 114.947L126.926 183.996L126.916 184.006L126.641 184.281L126.63 184.292L126.62 184.304C122.432 189.05 116.574 191.84 109.872 191.84C103.183 191.84 97.3163 188.774 93.1149 184.293L93.1094 184.287L93.1037 184.281L92.8191 183.996L92.8183 183.996L24.3302 115.222L24.3295 115.221C12.1466 103.038 4.5 86.3266 4.5 67.6327C4.5 30.5254 34.5254 0.5 71.6328 0.5C84.9445 0.5 97.4069 4.46497 107.888 11.2635ZM100.579 98.1056L100.606 98.1606L100.646 98.2074C102.437 100.297 105.137 101.806 108.16 101.806C111.193 101.806 113.596 100.288 115.363 98.5209C115.97 97.9139 116.574 97.0163 116.892 96.0973C120.9 89.5011 123.773 82.3145 124.637 74.5404C124.638 74.5392 124.638 74.538 124.638 74.5368L124.639 74.5284C124.923 72.2558 125.212 69.9469 125.212 67.6327C125.212 52.3682 118.875 38.5366 108.498 29.0246L108.16 28.7148L107.822 29.0246C97.4455 38.5366 91.1087 52.3682 91.1087 67.6327C91.1087 70.2323 91.3973 72.5412 91.6819 74.818L91.6823 74.8203C91.6824 74.8217 91.6826 74.8231 91.6827 74.8246C92.5443 82.8587 95.4032 90.0309 99.6799 96.6189C99.7278 97.0047 99.9377 97.2858 100.107 97.4886C100.159 97.5517 100.208 97.6078 100.253 97.6597C100.392 97.8206 100.497 97.9417 100.579 98.1056ZM131.068 159.58L131.068 159.579L154.465 134.756L154.469 134.752L181.852 106.228C191.933 96.7182 198.266 82.8935 198.266 67.9181C198.266 38.2471 174.07 14.3392 144.688 14.3392C135.764 14.3392 127.406 16.3548 119.909 20.3918L119.324 20.7065L119.788 21.1814C131.685 33.3612 138.766 49.7882 138.766 67.9181C138.766 80.6617 135.084 92.5578 128.851 102.758L128.778 102.878V103.019V103.02V103.022V103.024V103.025V103.027V103.029V103.03V103.032V103.033V103.035V103.037V103.038V103.04V103.041V103.043V103.045V103.046V103.048V103.049V103.051V103.052V103.054V103.055V103.057V103.058V103.06V103.061V103.063V103.064V103.066V103.067V103.069V103.07V103.072V103.073V103.075V103.076V103.078V103.079V103.08V103.082V103.083V103.085V103.086V103.087V103.089V103.09V103.092V103.093V103.094V103.096V103.097V103.098V103.1V103.101V103.102V103.104V103.105V103.106V103.108V103.109V103.11V103.112V103.113V103.114V103.115V103.117V103.118V103.119V103.12V103.122V103.123V103.124V103.125V103.127V103.128V103.129V103.13V103.131V103.133V103.134V103.135V103.136V103.137C128.646 103.311 128.508 103.493 128.365 103.68C127.61 104.671 126.723 105.837 126.019 107.001C123.778 109.514 120.991 111.736 117.941 113.122C114.853 114.526 111.785 115.36 108.16 115.36C104.818 115.36 101.464 114.524 98.3799 113.123C94.7425 111.443 91.9587 109.213 89.7301 106.149L89.707 106.117L89.6793 106.09C89.3031 105.713 89.077 105.357 88.7547 104.848C88.6283 104.649 88.4873 104.427 88.3166 104.171C81.5203 93.692 77.5548 80.9456 77.5548 67.6327C77.5548 49.5076 84.9177 33.0772 96.5365 20.8917L97.0034 20.402L96.3982 20.0994C88.9188 16.3597 80.5669 14.0539 71.6328 14.0539C41.9617 14.0539 18.0539 38.2506 18.0539 67.6327C18.0539 82.6161 24.3931 96.1526 34.1811 105.941L63.2868 135.046L63.2888 135.048L88.1126 160.157L88.114 160.159L102.64 174.969C104.18 177.1 106.899 178.286 109.587 178.286C112.342 178.286 114.745 176.759 116.504 175L116.789 174.715L116.795 174.71L116.8 174.704L131.068 159.58Z" stroke="black"/>
</g>
<defs>
<filter id="filter0_d_1_147" x="0" y="0" width="216.32" height="200.34" filterUnits="userSpaceOnUse" color-interpolation-filters="sRGB">
<feFlood flood-opacity="0" result="BackgroundImageFix"/>
<feColorMatrix in="SourceAlpha" type="matrix" values="0 0 0 0 0 0 0 0 0 0 0 0 0 0 0 0 0 0 127 0" result="hardAlpha"/>
<feOffset dy="4"/>
<feGaussianBlur stdDeviation="2"/>
<feComposite in2="hardAlpha" operator="out"/>
<feColorMatrix type="matrix" values="0 0 0 0 0 0 0 0 0 0 0 0 0 0 0 0 0 0 0.25 0"/>
<feBlend mode="normal" in2="BackgroundImageFix" result="effect1_dropShadow_1_147"/>
<feBlend mode="normal" in="SourceGraphic" in2="effect1_dropShadow_1_147" result="shape"/>
</filter>
</defs>
</svg>
