<svg width="82" height="55" viewBox="0 0 82 55" fill="none" xmlns="http://www.w3.org/2000/svg">
<path d="M1.0897 28.1556C1.0897 28.0866 1.15781 28.0176 1.22591 27.9486C1.29402 27.8795 1.36213 27.8795 1.49834 27.8795H4.08638C4.2907 27.8795 4.42691 27.9486 4.42691 28.1556L6.4701 35.1255L8.51329 28.1556C8.5814 27.9486 8.71761 27.8795 8.92193 27.8795H11.5781C11.6462 27.8795 11.7824 27.8795 11.8505 27.9486C11.9186 28.0176 11.9867 28.0866 11.9867 28.2246C12.191 30.0188 12.3272 31.813 12.5316 33.6073C12.7359 35.4015 12.8721 37.1957 13.0764 38.99V39.059C13.0764 39.266 12.9402 39.335 12.7359 39.335H10.5565C10.3522 39.335 10.2159 39.197 10.2159 38.99L9.53488 33.0552L7.83223 39.059C7.83223 39.128 7.76412 39.197 7.69601 39.266C7.62791 39.335 7.5598 39.404 7.49169 39.404H5.51661C5.44851 39.404 5.3804 39.404 5.31229 39.266C5.24419 39.197 5.17608 39.128 5.17608 39.059L3.47342 33.1242L2.79236 39.059C2.79236 39.266 2.65615 39.404 2.45183 39.404H0.340532C0.136213 39.404 0 39.266 0 39.059L1.0897 28.1556Z" fill="#011334"/>
<path d="M13.9618 34.3664C13.9618 33.8833 14.0299 33.4693 14.1661 32.9862C14.3023 32.5721 14.4385 32.1581 14.6429 31.744C14.8472 31.33 15.1196 31.0539 15.392 30.7089C15.6645 30.3639 16.005 30.1568 16.4136 29.9498C16.7542 29.7428 17.1628 29.5358 17.6395 29.4667C18.0482 29.3287 18.5249 29.2597 19.0017 29.2597C19.6827 29.2597 20.3638 29.3977 20.9086 29.6738C21.5216 29.9498 22.0664 30.2949 22.4751 30.7089C22.9518 31.192 23.2924 31.675 23.5648 32.2961C23.8372 32.9172 23.9734 33.5383 23.9734 34.2974C23.9734 34.7804 23.9053 35.1945 23.7691 35.6775C23.6329 36.1606 23.4967 36.5056 23.2924 36.9197C23.088 37.2647 22.8156 37.6098 22.5432 37.9548C22.2708 38.2309 21.9302 38.5069 21.5216 38.7139C21.1811 38.9209 20.7724 39.128 20.3638 39.197C19.9551 39.266 19.4784 39.404 19.0698 39.404C18.593 39.404 18.1844 39.335 17.7076 39.197C17.299 39.059 16.8904 38.9209 16.4817 38.7139C16.1412 38.5069 15.8007 38.2309 15.4601 37.9548C15.1196 37.6788 14.9153 37.3337 14.711 36.9197C14.5066 36.5747 14.3023 36.1606 14.2342 35.6775C14.1661 35.1945 13.9618 34.7804 13.9618 34.3664ZM16.686 34.3664C16.686 34.7114 16.7542 34.9874 16.8223 35.3325C16.9585 35.6085 17.0947 35.8846 17.2309 36.0916C17.4352 36.2986 17.6395 36.5056 17.912 36.5747C18.1844 36.7127 18.4568 36.7817 18.7973 36.7817C19.1379 36.7817 19.4103 36.7127 19.6827 36.5747C19.9551 36.4366 20.1595 36.2986 20.3638 36.0916C20.5681 35.8846 20.7043 35.6085 20.7724 35.3325C20.8405 35.0565 20.9086 34.7114 20.9086 34.3664C20.9086 34.0213 20.8405 33.7453 20.7724 33.4002C20.7043 33.1242 20.5 32.8482 20.3638 32.6411C20.1595 32.4341 19.9551 32.2271 19.6827 32.0891C19.4103 31.9511 19.1379 31.8821 18.7973 31.8821C18.4568 31.8821 18.1844 31.9511 17.912 32.0891C17.6395 32.2271 17.4352 32.3651 17.2309 32.6411C17.0266 32.9172 16.8904 33.1242 16.8223 33.4002C16.7542 33.6763 16.686 34.0213 16.686 34.3664Z" fill="#011334"/>
<path d="M25.4037 30.0188C25.4037 29.9498 25.4037 29.8118 25.4718 29.7428C25.5399 29.6738 25.5399 29.6048 25.608 29.5358C25.6761 29.4667 25.7442 29.4667 25.8123 29.3977C25.8804 29.3977 25.9485 29.3977 26.0166 29.3977H27.1744C27.3107 29.3977 27.3788 29.4667 27.4469 29.5358C27.515 29.6048 27.5831 29.7428 27.6512 29.8118C27.7193 29.9498 27.7193 30.0878 27.7874 30.2258C27.8555 30.3639 27.8555 30.5019 27.9236 30.6399C28.0598 30.5019 28.196 30.2949 28.4004 30.1568C28.5366 30.0188 28.7409 29.8808 28.8771 29.7428C29.0814 29.6048 29.2176 29.5358 29.422 29.3977C29.6263 29.3287 29.8306 29.2597 30.103 29.2597C30.3754 29.2597 30.6479 29.2597 30.8522 29.3287C31.0565 29.3977 31.2608 29.3977 31.4651 29.5358C31.6695 29.6048 31.8738 29.7428 32.01 29.8118C32.2143 29.9498 32.4186 30.0878 32.623 30.2258C32.8273 30.3639 32.9635 30.5019 32.9635 30.7089C32.9635 30.8469 32.8954 30.9849 32.8273 31.123L32.1462 32.2961C32.01 32.5031 31.8738 32.5721 31.6695 32.5721C31.6014 32.5721 31.4651 32.5721 31.3289 32.5031C31.1246 32.2961 30.9203 32.1581 30.6479 32.0201C30.4435 31.8821 30.1711 31.8821 29.8987 31.8821C29.6944 31.8821 29.5582 31.8821 29.3538 31.9511C29.1495 32.0201 29.0814 32.0891 28.9452 32.1581C28.809 32.2271 28.7409 32.4341 28.6047 32.5721C28.4685 32.7102 28.4004 32.8482 28.2641 33.0552V38.6449C28.2641 38.8519 28.196 38.9899 28.1279 39.059C28.0598 39.128 27.8555 39.197 27.6512 39.197H25.9485C25.5399 39.197 25.3356 38.99 25.3356 38.5759V30.0188H25.4037Z" fill="#011334"/>
<path d="M43.7924 38.6449C43.7924 38.7139 43.7924 38.7829 43.7243 38.921C43.7243 38.99 43.6562 39.059 43.5881 39.128C43.52 39.197 43.4519 39.197 43.3837 39.266C43.3156 39.266 43.2475 39.266 43.1794 39.266H41.6811C41.5449 39.266 41.4768 39.266 41.4087 39.197C41.3406 39.197 41.2724 39.128 41.2724 39.059C41.2043 38.99 41.2043 38.921 41.2043 38.852C41.2043 38.7829 41.1362 38.7139 41.1362 38.5759L41.0681 38.2309C40.9319 38.3689 40.7957 38.5069 40.5914 38.6449C40.3871 38.7829 40.2509 38.921 40.0465 38.99C39.8422 39.128 39.6379 39.197 39.3655 39.266C39.093 39.335 38.8887 39.335 38.6163 39.335C38.1396 39.335 37.7309 39.266 37.3223 39.128C36.9136 38.99 36.505 38.852 36.1645 38.6449C35.8239 38.4379 35.4834 38.1619 35.1429 37.8858C34.8705 37.6098 34.598 37.2647 34.3937 36.8507C34.1894 36.5057 33.9851 36.0916 33.917 35.6085C33.7808 35.1945 33.7126 34.7114 33.7126 34.2284C33.7126 33.5383 33.8489 32.8482 34.1213 32.2271C34.3937 31.606 34.7342 31.054 35.1429 30.6399C35.6196 30.1568 36.0964 29.8118 36.7093 29.6048C37.3223 29.3287 37.9352 29.1907 38.6163 29.1907C38.9568 29.1907 39.2293 29.2597 39.5017 29.3287C39.7741 29.3977 40.0465 29.4668 40.2509 29.6048C40.4552 29.7428 40.6595 29.8808 40.8638 30.0188C41.0681 30.1568 41.2043 30.3639 41.3406 30.5709L41.5449 29.8808C41.613 29.7428 41.613 29.6738 41.6811 29.5358C41.6811 29.4668 41.7492 29.3977 41.8173 29.3287C41.8854 29.2597 41.8854 29.2597 41.9535 29.2597C42.0216 29.2597 42.0897 29.2597 42.1578 29.2597H43.3156C43.3837 29.2597 43.4519 29.2597 43.52 29.2597C43.5881 29.2597 43.6562 29.3287 43.7243 29.3977C43.7924 29.4668 43.8605 29.5358 43.8605 29.6048C43.8605 29.6738 43.9286 29.7428 43.9286 29.8808V38.6449H43.7924ZM36.3688 34.3664C36.3688 34.7114 36.4369 34.9875 36.505 35.3325C36.6412 35.6085 36.7774 35.8846 36.9818 36.0916C37.1861 36.2986 37.3904 36.5057 37.6628 36.5747C37.9352 36.7127 38.2077 36.7817 38.5482 36.7817C38.8887 36.7817 39.2293 36.7127 39.5017 36.5747C39.7741 36.4366 40.0465 36.2986 40.2509 36.0916C40.4552 35.8846 40.6595 35.6085 40.7276 35.3325C40.7957 35.0565 40.9319 34.7114 40.9319 34.3664C40.9319 34.0213 40.8638 33.7453 40.7276 33.4003C40.5914 33.1242 40.4552 32.8482 40.2509 32.6412C40.0465 32.4341 39.7741 32.2271 39.5017 32.0891C39.2293 31.9511 38.8887 31.8821 38.5482 31.8821C38.2077 31.8821 37.9352 31.9511 37.6628 32.0891C37.3904 32.2271 37.1861 32.3651 36.9818 32.6412C36.7774 32.8482 36.6412 33.1242 36.505 33.4003C36.3688 33.6763 36.3688 34.0213 36.3688 34.3664Z" fill="#011334"/>
<path d="M45.6312 27.1204C45.6312 26.9824 45.6993 26.8444 45.7674 26.7064C45.8355 26.5684 45.9718 26.5684 46.1761 26.5684H48.0149C48.083 26.5684 48.1511 26.5684 48.1511 26.6374C48.2192 26.6374 48.2874 26.7064 48.2874 26.7754C48.3555 26.8444 48.3555 26.9134 48.4236 26.9824C48.4236 27.0514 48.4917 27.1204 48.4917 27.1895V38.6449C48.4917 38.8519 48.4236 38.99 48.3555 39.059C48.2193 39.128 48.083 39.197 47.9468 39.197H46.1761C45.9718 39.197 45.8355 39.128 45.7674 39.059C45.6312 38.99 45.6312 38.7829 45.6312 38.6449V27.1204Z" fill="#011334"/>
<path d="M50.3306 26.1543C50.3306 25.9473 50.3987 25.8093 50.4668 25.6713C50.5349 25.6023 50.6711 25.5332 50.8754 25.5332H52.6462C52.8505 25.5332 52.9867 25.6023 53.0548 25.6713C53.1229 25.7403 53.191 25.9473 53.191 26.1543V27.6725C53.191 27.7415 53.191 27.8105 53.1229 27.8795C53.1229 27.9486 53.0548 28.0176 52.9867 28.0866C52.9186 28.1556 52.8505 28.2246 52.7824 28.2246C52.7143 28.2246 52.7143 28.2936 52.6462 28.2936H50.8754C50.5349 28.2936 50.3306 28.0866 50.3306 27.6725V26.1543ZM50.3306 30.0188C50.3306 29.8808 50.3987 29.7428 50.4668 29.6048C50.5349 29.4668 50.6711 29.3977 50.8754 29.3977H52.5781C52.6462 29.3977 52.7143 29.3977 52.7824 29.4668C52.8505 29.4668 52.9186 29.5358 52.9867 29.6048C53.0548 29.6738 53.1229 29.7428 53.1229 29.8118C53.191 29.8808 53.191 29.9498 53.191 30.0878V38.6449C53.191 38.8519 53.1229 38.99 53.0548 39.059C52.9186 39.128 52.7824 39.197 52.5781 39.197H50.8754C50.5349 39.197 50.3306 38.99 50.3306 38.5759V30.0188Z" fill="#011334"/>
<path d="M54.9618 30.0188C54.9618 29.8118 55.0299 29.6738 55.098 29.6048C55.1661 29.5358 55.3704 29.4668 55.5747 29.4668H61.9767C62.1129 29.4668 62.2491 29.5358 62.3853 29.6048C62.5215 29.6738 62.5897 29.8808 62.5897 30.0878V31.399C62.5897 31.468 62.5897 31.468 62.5897 31.537C62.5897 31.606 62.5897 31.675 62.5216 31.744L58.3671 36.7817H62.1129C62.3172 36.7817 62.4534 36.8507 62.5216 36.9197C62.6578 36.9887 62.6578 37.1957 62.6578 37.4028V38.5759C62.6578 38.6449 62.6578 38.7139 62.5897 38.7829C62.5897 38.8519 62.5215 38.921 62.4534 38.99C62.3853 39.059 62.3172 39.128 62.2491 39.128C62.181 39.197 62.1129 39.197 61.9767 39.197H55.3023C55.2342 39.197 55.1661 39.197 55.098 39.128C55.0299 39.059 54.9618 39.059 54.8936 38.99C54.8255 38.921 54.7574 38.8519 54.7574 38.7829C54.7574 38.7139 54.6893 38.6449 54.6893 38.5069V37.4718C54.6893 37.4028 54.6893 37.3337 54.6893 37.2647C54.6893 37.1957 54.7574 37.1267 54.8255 37.0577C55.1661 36.7127 55.5066 36.2986 55.9152 35.8156C56.3239 35.3325 56.6644 34.9184 57.073 34.4354C57.4817 33.9523 57.8222 33.5383 58.2309 33.0552C58.6395 32.5721 58.98 32.2271 59.3206 31.813H55.6428C55.4385 31.813 55.3023 31.744 55.1661 31.675C55.0299 31.606 55.0299 31.399 55.0299 31.192V30.0188H54.9618Z" fill="#011334"/>
<path d="M71.7841 38.0238C71.3073 38.4379 70.8306 38.7829 70.2857 38.99C69.7409 39.197 69.1279 39.335 68.515 39.335C67.8339 39.335 67.1528 39.197 66.5399 38.921C65.9269 38.6449 65.3821 38.2999 64.9053 37.8858C64.4286 37.4718 64.088 36.9197 63.8156 36.2986C63.5432 35.6775 63.407 34.9875 63.407 34.2974C63.407 33.8143 63.4751 33.4003 63.5432 32.9862C63.6794 32.5721 63.8156 32.1581 64.0199 31.813C64.2243 31.468 64.4286 31.123 64.7691 30.7779C65.0415 30.5019 65.3821 30.2258 65.7226 29.9498C66.0631 29.7428 66.4718 29.5358 66.8804 29.4667C67.289 29.3287 67.6977 29.2597 68.1744 29.2597C68.5831 29.2597 68.9917 29.3287 69.4003 29.3977C69.809 29.5358 70.1495 29.6738 70.49 29.8808C70.8306 30.0878 71.1711 30.3639 71.4435 30.6399C71.7159 30.9159 71.9884 31.261 72.1927 31.606C72.397 31.9511 72.5332 32.2961 72.6694 32.7102C72.8056 33.1242 72.8738 33.4693 72.8738 33.8833C72.8738 34.1593 72.8738 34.3664 72.8738 34.5044C72.8738 34.6424 72.8056 34.7804 72.7375 34.9184C72.6694 35.0565 72.5332 35.0565 72.397 35.1255C72.2608 35.1945 71.9884 35.1945 71.6478 35.1945H66.1993C66.2674 35.5395 66.3356 35.8156 66.5399 36.0226C66.6761 36.2296 66.8804 36.4366 67.0847 36.5747C67.289 36.7127 67.4934 36.7817 67.6977 36.8507C67.902 36.9197 68.1063 36.9197 68.3106 36.9197C68.515 36.9197 68.6512 36.9197 68.8555 36.8507C69.0598 36.7817 69.2641 36.7817 69.4003 36.7127C69.6047 36.6437 69.7409 36.5747 69.8771 36.5057C70.0133 36.4366 70.1495 36.2986 70.2176 36.2296C70.2857 36.1606 70.3538 36.0916 70.4219 36.0916C70.49 36.0916 70.5581 36.0226 70.6262 36.0226C70.6944 36.0226 70.7625 36.0226 70.8306 36.0916C70.8987 36.1606 70.9668 36.2296 71.0349 36.2986L71.8522 37.1957C71.9203 37.2647 71.9203 37.3338 71.9884 37.4028C71.9884 37.4718 71.9884 37.5408 71.9884 37.5408C71.9884 37.6098 71.9884 37.7478 71.9203 37.8168C71.9203 37.8858 71.8522 37.9548 71.7841 38.0238ZM68.1063 31.675C67.902 31.675 67.6977 31.744 67.5615 31.813C67.3571 31.8821 67.2209 32.0201 67.0166 32.1581C66.8123 32.2961 66.6761 32.4341 66.608 32.6412C66.4718 32.7792 66.4037 32.9862 66.2674 33.1242H70.1495C70.0133 32.9172 69.9452 32.7102 69.809 32.5721C69.6728 32.4341 69.5365 32.2271 69.4003 32.1581C69.2641 32.0201 69.0598 31.9511 68.8555 31.8821C68.6512 31.675 68.3787 31.675 68.1063 31.675Z" fill="#011334"/>
<path d="M74.4402 30.0188C74.4402 29.9498 74.4402 29.8118 74.5083 29.7428C74.5764 29.6738 74.5764 29.6048 74.6445 29.5358C74.7126 29.4667 74.7807 29.4667 74.8488 29.3977C74.9169 29.3977 74.985 29.3977 75.0531 29.3977H76.2109C76.3472 29.3977 76.4153 29.4667 76.4834 29.5358C76.5515 29.6048 76.6196 29.7428 76.6877 29.8118C76.7558 29.9498 76.7558 30.0878 76.8239 30.2258C76.892 30.3639 76.892 30.5019 76.9601 30.6399C77.0963 30.5019 77.2325 30.2949 77.4369 30.1568C77.5731 30.0188 77.7774 29.8808 77.9136 29.7428C78.1179 29.6048 78.2541 29.5358 78.4585 29.3977C78.6628 29.3287 78.8671 29.2597 79.1395 29.2597C79.4119 29.2597 79.6844 29.2597 79.8887 29.3287C80.093 29.3977 80.2973 29.3977 80.5016 29.5358C80.706 29.6048 80.9103 29.7428 81.0465 29.8118C81.2508 29.9498 81.4551 30.0878 81.6595 30.2258C81.8638 30.3639 82 30.5019 82 30.7089C82 30.8469 81.9319 30.9849 81.8638 31.123L81.1827 32.2961C81.0465 32.5031 80.9103 32.5721 80.706 32.5721C80.6379 32.5721 80.5016 32.5721 80.3654 32.5031C80.1611 32.2961 79.9568 32.1581 79.6844 32.0201C79.4801 31.8821 79.2076 31.8821 78.9352 31.8821C78.7309 31.8821 78.5947 31.8821 78.3903 31.9511C78.186 32.0201 78.1179 32.0891 77.9817 32.1581C77.8455 32.2271 77.7774 32.3651 77.6412 32.5031C77.505 32.6411 77.4369 32.7792 77.3006 32.9862V38.6449C77.3006 38.8519 77.2325 38.9899 77.1644 39.059C77.0963 39.128 76.892 39.197 76.6877 39.197H74.985C74.5764 39.197 74.3721 38.99 74.3721 38.5759V30.0188H74.4402Z" fill="#011334"/>
<path d="M18.3887 17.1142C18.3887 9.73024 24.3139 3.72647 31.6013 3.72647C33.7807 3.72647 35.892 4.27854 37.7309 5.24467C34.9385 8.14304 33.1677 12.0765 32.9634 16.4241V16.4931C32.9634 16.6311 32.9634 16.8381 32.9634 16.9762C32.9634 17.1142 32.9634 17.2522 32.9634 17.3902C33.1677 20.9097 35.5515 23.808 38.8206 24.6361C39.4335 24.7742 40.0465 24.9122 40.7275 24.9122C41.4086 24.9122 42.0216 24.8432 42.6345 24.6361C45.9036 23.808 48.3555 20.9097 48.4917 17.3902C48.4917 17.2522 48.4917 17.1142 48.4917 16.9762C48.4917 16.8381 48.4917 16.6311 48.4917 16.4931V16.4241C48.2873 12.0765 46.5166 8.21205 43.7242 5.24467C45.5631 4.27854 47.6063 3.72647 49.8538 3.72647C57.1412 3.72647 63.0664 9.73024 63.0664 17.1142C63.0664 20.4266 61.9086 23.394 59.9335 25.7403H64.4286C65.9269 23.187 66.7442 20.2196 66.7442 17.1142C66.7442 7.65997 59.1844 0 49.8538 0C46.5166 0 43.3837 0.966123 40.7275 2.69134C38.1395 0.966123 35.0066 0 31.6013 0C22.2707 0 14.7109 7.65997 14.7109 17.1142C14.7109 20.2886 15.5963 23.256 17.0266 25.7403H21.4535C19.5465 23.463 18.3887 20.4266 18.3887 17.1142ZM39.1611 9.17817C39.6378 8.55709 40.1146 7.93601 40.7275 7.38394C41.2724 7.93601 41.8173 8.55709 42.294 9.17817C43.7923 11.2484 44.6777 13.7327 44.8139 16.4931C44.8139 16.6311 44.8139 16.7691 44.8139 16.9072V16.9762C44.8139 19.2535 42.9751 21.1167 40.6594 21.1167C38.4119 21.1167 36.5731 19.2535 36.505 16.9762V16.9072C36.505 16.7691 36.505 16.6311 36.505 16.4931C36.7774 13.8018 37.6628 11.2484 39.1611 9.17817Z" fill="#B356C1"/>
<path d="M45.8356 47.202L42.4984 50.7905L42.4302 50.8595C42.0897 51.2735 41.5449 51.4806 41 51.4806C40.3871 51.4806 39.9103 51.2045 39.5017 50.7905L39.4336 50.7215L36.0283 47.271L32.8954 44.0966H28.0598L36.9136 53.1368L36.9817 53.2058C37.9352 54.3099 39.3655 54.931 40.9319 54.931C42.4984 54.931 43.9286 54.2409 44.8821 53.1368L53.3954 44.0276H48.696L45.8356 47.202Z" fill="#B356C1"/>
</svg>
