<svg width="18" height="18" viewBox="0 0 18 18" fill="none" xmlns="http://www.w3.org/2000/svg">
<path d="M17.3462 16.3769L12.9462 11.9769C14.0574 10.6109 14.6021 8.87065 14.468 7.11492C14.3339 5.3592 13.5313 3.72185 12.2256 2.54045C10.9199 1.35906 9.21067 0.723693 7.45033 0.765354C5.68998 0.807015 4.01272 1.52253 2.76437 2.76436C1.52253 4.01272 0.807015 5.68998 0.765354 7.45032C0.723693 9.21067 1.35906 10.9199 2.54045 12.2256C3.72185 13.5313 5.3592 14.3339 7.11493 14.468C8.87066 14.6021 10.6109 14.0574 11.9769 12.9462L16.3769 17.3462C16.5084 17.4589 16.6776 17.5177 16.8506 17.511C17.0236 17.5044 17.1877 17.4326 17.3102 17.3102C17.4326 17.1877 17.5044 17.0236 17.511 16.8506C17.5177 16.6776 17.4589 16.5084 17.3462 16.3769ZM3.73374 11.5162C2.96419 10.7472 2.44001 9.76719 2.2275 8.7002C2.01499 7.6332 2.1237 6.52715 2.53987 5.52195C2.95605 4.51675 3.66099 3.65755 4.56554 3.05305C5.47009 2.44854 6.5336 2.12588 7.62155 2.12588C8.7095 2.12588 9.77302 2.44854 10.6776 3.05305C11.5821 3.65755 12.2871 4.51675 12.7032 5.52195C13.1194 6.52715 13.2281 7.6332 13.0156 8.7002C12.8031 9.76719 12.2789 10.7472 11.5094 11.5162C11.001 12.0307 10.3956 12.4392 9.72824 12.7179C9.06087 12.9967 8.34481 13.1403 7.62155 13.1403C6.8983 13.1403 6.18224 12.9967 5.51487 12.7179C4.8475 12.4392 4.24209 12.0307 3.73374 11.5162Z" fill="#011334"/>
</svg>
